<?xml version="1.0" encoding="utf-8"?>
<!-- Generator: Adobe Illustrator 24.0.1, SVG Export Plug-In . SVG Version: 6.00 Build 0)  -->
<svg version="1.1" id="Layer_1" xmlns="http://www.w3.org/2000/svg" xmlns:xlink="http://www.w3.org/1999/xlink" x="0px" y="0px"
	 viewBox="0 0 225 322.2" style="enable-background:new 0 0 225 322.2;" xml:space="preserve">
<style type="text/css">
	.st0{fill:#00840C;}
	.st1{fill:none;stroke:#FFFFFF;stroke-width:13;stroke-miterlimit:10;}
	.st2{fill:#FFFFFF;}
</style>
<title>Asset 24</title>
<path class="st0" d="M224.9,117.2c-2.3,87.4-66.5,165.9-96.9,198.2c-8.2,8.7-21.9,9.1-30.5,0.9c-0.3-0.3-0.5-0.5-0.8-0.8
	C65.7,283.2,0,203.8,0,112.5C0,50.4,50.4,0,112.5,0c0.2,0,0.3,0,0.5,0C176.4,0.3,226.6,53.8,224.9,117.2z"/>
<circle class="st1" cx="112.5" cy="111.6" r="95"/>
<polygon class="st2" points="132.6,83.7 177.1,91.1 144.2,121.9 150.9,166.5 111.4,144.7 71,164.9 79.6,120.6 47.9,88.5 92.7,82.9 
	113.5,42.9 "/>
</svg>
