<svg xmlns="http://www.w3.org/2000/svg" viewBox="0 0 113.37 113.37"><defs><style>.cls-1,.cls-5{fill:none;}.cls-1,.cls-2,.cls-3,.cls-4,.cls-5{stroke:#119724;}.cls-1,.cls-2,.cls-5{stroke-miterlimit:10;}.cls-1{stroke-width:6px;}.cls-2,.cls-3{fill:#119724;}.cls-2{stroke-width:0.78px;}.cls-3,.cls-4,.cls-5{stroke-linecap:round;}.cls-3,.cls-4{stroke-linejoin:round;}.cls-3{stroke-width:1.72px;}.cls-4{fill:#fff;stroke-width:2.48px;}.cls-5{stroke-width:3px;stroke-dasharray:0.49 7.03;}</style></defs><title>Asset 14</title><g id="Layer_2" data-name="Layer 2"><g id="Layer_1-2" data-name="Layer 1"><circle class="cls-1" cx="56.68" cy="56.68" r="53.68"/><path class="cls-2" d="M60.32,83.92c25.43,1.55,27.09-14.59,23.36-29.45A92,92,0,0,0,77,36.55a98.54,98.54,0,0,0-16.41,9.7c-5.42,4.09-10.11,9.07-11.93,14.58C46.37,67.82,48.75,75.66,60.32,83.92Z"/><line class="cls-3" x1="76.4" y1="38.33" x2="58.48" y2="89.36"/><path class="cls-4" d="M54.73,82.61c27-13.93,18.8-31.45,5.91-44.37A109.88,109.88,0,0,0,42.87,24,117.93,117.93,0,0,0,32,43.94c-3.05,7.48-4.8,15.44-3.3,22.19C30.65,74.68,37.87,81.23,54.73,82.61Z"/><line class="cls-4" x1="43.34" y1="26.2" x2="56.17" y2="89.3"/><line class="cls-4" x1="52.98" y1="71.63" x2="59.29" y2="59.46"/><line class="cls-4" x1="49.78" y1="55.83" x2="56.1" y2="43.66"/><line class="cls-4" x1="51.96" y1="71.83" x2="41.41" y2="63.08"/><line class="cls-4" x1="48.77" y1="56.04" x2="38.21" y2="47.28"/><circle class="cls-5" cx="56.68" cy="56.68" r="45.48"/></g></g></svg>